{
	"asset":{
		"version":"2.0",
		"generator":"Blender Foundation Blender (stable FBX IO) 2.78 (sub 0)",
		"copyright":""
	},
	"scenes":[{
		"nodes":[0,
		1,
		2,
		3,
		4,
		5]
	}],
	"nodes":[{
		"scale":[1.0,
		1.0,
		1.0],
		"name":"astronauta-Mat.2",
		"mesh":0,
		"translation":[0.0,
		403.73602294921877,
		0.0],
		"rotation":[0.0,
		0.0,
		0.0,
		-1.0]
	},
	{
		"scale":[1.0,
		1.0,
		1.0],
		"name":"astronauta-Mat.4",
		"mesh":1,
		"translation":[0.0,
		403.73602294921877,
		0.0],
		"rotation":[0.0,
		0.0,
		0.0,
		-1.0]
	},
	{
		"scale":[1.0,
		1.0,
		1.0],
		"name":"astronauta-Mat",
		"mesh":2,
		"translation":[0.0,
		403.73602294921877,
		0.0],
		"rotation":[0.0,
		0.0,
		0.0,
		-1.0]
	},
	{
		"scale":[1.0,
		1.0,
		1.0],
		"name":"astronauta-Mat",
		"mesh":3,
		"translation":[0.0,
		403.73602294921877,
		0.0],
		"rotation":[0.0,
		0.0,
		0.0,
		-1.0]
	},
	{
		"scale":[1.0,
		1.0,
		1.0],
		"name":"astronauta-Mat",
		"mesh":4,
		"translation":[0.0,
		403.73602294921877,
		0.0],
		"rotation":[0.0,
		0.0,
		0.0,
		-1.0]
	},
	{
		"scale":[1.0,
		1.0,
		1.0],
		"name":"astronauta-Mat.1",
		"mesh":5,
		"translation":[0.0,
		403.73602294921877,
		0.0],
		"rotation":[0.0,
		0.0,
		0.0,
		-1.0]
	}],
	"meshes":[{
		"name":"astronauta-Mat.2",
		"primitives":[{
			"attributes":{
				"POSITION":1,
				"NORMAL":2,
				"TEXCOORD_0":3
			},
			"indices":0
		}]
	},
	{
		"name":"astronauta-Mat.4",
		"primitives":[{
			"attributes":{
				"POSITION":5,
				"NORMAL":6,
				"TEXCOORD_0":7
			},
			"indices":4
		}]
	},
	{
		"name":"astronauta-Mat",
		"primitives":[{
			"attributes":{
				"POSITION":9,
				"NORMAL":10,
				"TEXCOORD_0":11
			},
			"indices":8
		}]
	},
	{
		"name":"astronauta-Mat",
		"primitives":[{
			"attributes":{
				"POSITION":13,
				"NORMAL":14,
				"TEXCOORD_0":15
			},
			"indices":12
		}]
	},
	{
		"name":"astronauta-Mat",
		"primitives":[{
			"attributes":{
				"POSITION":17,
				"NORMAL":18,
				"TEXCOORD_0":19
			},
			"indices":16
		}]
	},
	{
		"name":"astronauta-Mat.1",
		"primitives":[{
			"attributes":{
				"POSITION":21,
				"NORMAL":22,
				"TEXCOORD_0":23
			},
			"indices":20
		}]
	}],
	"accessors":[{
		"bufferView":0,
		"type":"SCALAR",
		"componentType":5123,
		"min":[0],
		"count":3168,
		"byteOffset":0,
		"max":[3167]
	},
	{
		"bufferView":1,
		"type":"VEC3",
		"componentType":5126,
		"min":[-357.63385009765627,
		-261.3592834472656,
		-57.62649154663086],
		"count":3168,
		"byteOffset":0,
		"max":[296.66473388671877,
		339.792724609375,
		209.6824188232422]
	},
	{
		"bufferView":1,
		"type":"VEC3",
		"componentType":5126,
		"min":[-0.9995417594909668,
		-0.9730562567710877,
		-0.9908081293106079],
		"count":3168,
		"byteOffset":12,
		"max":[0.9975646734237671,
		0.9844961166381836,
		0.9999967813491821]
	},
	{
		"bufferView":1,
		"type":"VEC2",
		"componentType":5126,
		"min":[0.008492469787597657,
		0.015543937683105469],
		"count":3168,
		"byteOffset":24,
		"max":[0.6604766845703125,
		0.5304412841796875]
	},
	{
		"bufferView":2,
		"type":"SCALAR",
		"componentType":5123,
		"min":[0],
		"count":1278,
		"byteOffset":0,
		"max":[1277]
	},
	{
		"bufferView":3,
		"type":"VEC3",
		"componentType":5126,
		"min":[-181.11007690429688,
		-405.08148193359377,
		-66.50023651123047],
		"count":1278,
		"byteOffset":0,
		"max":[174.86561584472657,
		-256.95721435546877,
		124.35847473144531]
	},
	{
		"bufferView":3,
		"type":"VEC3",
		"componentType":5126,
		"min":[-0.9978713989257813,
		-0.9997318387031555,
		-0.986415445804596],
		"count":1278,
		"byteOffset":12,
		"max":[0.9990159869194031,
		0.8879159092903137,
		0.985577404499054]
	},
	{
		"bufferView":3,
		"type":"VEC2",
		"componentType":5126,
		"min":[0.26862335205078127,
		0.011051416397094727],
		"count":1278,
		"byteOffset":24,
		"max":[0.941864013671875,
		0.9788970947265625]
	},
	{
		"bufferView":4,
		"type":"SCALAR",
		"componentType":5123,
		"min":[0],
		"count":5112,
		"byteOffset":0,
		"max":[5111]
	},
	{
		"bufferView":5,
		"type":"VEC3",
		"componentType":5126,
		"min":[-324.64453125,
		-405.08148193359377,
		-128.54832458496095],
		"count":5112,
		"byteOffset":0,
		"max":[293.4984436035156,
		502.2469177246094,
		191.7156982421875]
	},
	{
		"bufferView":5,
		"type":"VEC3",
		"componentType":5126,
		"min":[-0.9978713989257813,
		-0.9997318387031555,
		-0.9998072385787964],
		"count":5112,
		"byteOffset":12,
		"max":[0.9990159869194031,
		0.9997508525848389,
		0.9997769594192505]
	},
	{
		"bufferView":5,
		"type":"VEC2",
		"componentType":5126,
		"min":[0.008925676345825196,
		0.011051416397094727],
		"count":5112,
		"byteOffset":24,
		"max":[0.97479248046875,
		0.9788970947265625]
	},
	{
		"bufferView":6,
		"type":"SCALAR",
		"componentType":5123,
		"min":[0],
		"count":3864,
		"byteOffset":0,
		"max":[3863]
	},
	{
		"bufferView":7,
		"type":"VEC3",
		"componentType":5126,
		"min":[-254.40545654296876,
		-115.1423568725586,
		-294.39361572265627],
		"count":3864,
		"byteOffset":0,
		"max":[225.9502410888672,
		473.0785217285156,
		-61.81878662109375]
	},
	{
		"bufferView":7,
		"type":"VEC3",
		"componentType":5126,
		"min":[-0.9999006390571594,
		-0.9912891983985901,
		-0.9988930225372315],
		"count":3864,
		"byteOffset":12,
		"max":[0.9999953508377075,
		0.993053138256073,
		0.9998427629470825]
	},
	{
		"bufferView":7,
		"type":"VEC2",
		"componentType":5126,
		"min":[-0.0003750920295715332,
		0.09595489501953125],
		"count":3864,
		"byteOffset":24,
		"max":[0.9737396240234375,
		0.996612548828125]
	},
	{
		"bufferView":8,
		"type":"SCALAR",
		"componentType":5123,
		"min":[0],
		"count":7710,
		"byteOffset":0,
		"max":[7709]
	},
	{
		"bufferView":9,
		"type":"VEC3",
		"componentType":5126,
		"min":[-255.7943115234375,
		-123.53612518310547,
		-175.62457275390626],
		"count":7710,
		"byteOffset":0,
		"max":[120.14459991455078,
		389.2475891113281,
		164.27122497558595]
	},
	{
		"bufferView":9,
		"type":"VEC3",
		"componentType":5126,
		"min":[-0.9972257614135742,
		-0.9979822039604187,
		-0.9999579787254334],
		"count":7710,
		"byteOffset":12,
		"max":[0.9964647889137268,
		0.9985343813896179,
		0.9997830390930176]
	},
	{
		"bufferView":9,
		"type":"VEC2",
		"componentType":5126,
		"min":[0.13881683349609376,
		0.014384031295776368],
		"count":7710,
		"byteOffset":24,
		"max":[0.9922027587890625,
		0.6646728515625]
	},
	{
		"bufferView":10,
		"type":"SCALAR",
		"componentType":5123,
		"min":[0],
		"count":1632,
		"byteOffset":0,
		"max":[1631]
	},
	{
		"bufferView":11,
		"type":"VEC3",
		"componentType":5126,
		"min":[-157.1949920654297,
		124.84791564941406,
		17.780323028564454],
		"count":1632,
		"byteOffset":0,
		"max":[195.00213623046876,
		475.6904296875,
		246.29815673828126]
	},
	{
		"bufferView":11,
		"type":"VEC3",
		"componentType":5126,
		"min":[-0.9988774061203003,
		-0.9950080513954163,
		-0.20510275661945344],
		"count":1632,
		"byteOffset":12,
		"max":[0.9988774061203003,
		0.9998394250869751,
		0.9941872358322144]
	},
	{
		"bufferView":11,
		"type":"VEC2",
		"componentType":5126,
		"min":[0.000030517578125,
		0.000030517578125],
		"count":1632,
		"byteOffset":24,
		"max":[0.000030517578125,
		0.000030517578125]
	}],
	"bufferViews":[{
		"buffer":0,
		"byteOffset":0,
		"byteLength":6336,
		"target":34963
	},
	{
		"buffer":0,
		"byteOffset":6336,
		"byteLength":101376,
		"target":34962,
		"byteStride":32
	},
	{
		"buffer":1,
		"byteOffset":0,
		"byteLength":2556,
		"target":34963
	},
	{
		"buffer":1,
		"byteOffset":2556,
		"byteLength":40896,
		"target":34962,
		"byteStride":32
	},
	{
		"buffer":2,
		"byteOffset":0,
		"byteLength":10224,
		"target":34963
	},
	{
		"buffer":2,
		"byteOffset":10224,
		"byteLength":163584,
		"target":34962,
		"byteStride":32
	},
	{
		"buffer":3,
		"byteOffset":0,
		"byteLength":7728,
		"target":34963
	},
	{
		"buffer":3,
		"byteOffset":7728,
		"byteLength":123648,
		"target":34962,
		"byteStride":32
	},
	{
		"buffer":4,
		"byteOffset":0,
		"byteLength":15420,
		"target":34963
	},
	{
		"buffer":4,
		"byteOffset":15420,
		"byteLength":246720,
		"target":34962,
		"byteStride":32
	},
	{
		"buffer":5,
		"byteOffset":0,
		"byteLength":3264,
		"target":34963
	},
	{
		"buffer":5,
		"byteOffset":3264,
		"byteLength":52224,
		"target":34962,
		"byteStride":32
	}],
	"buffers":[{
		"uri":"data:application/octet-stream;base64,",
		"byteLength":107712
	},
	{
		"uri":"data:application/octet-stream;base64,",
		"byteLength":43452
	},
	{
		"uri":"data:application/octet-stream;base64,",
		"byteLength":173808
	},
	{
		"uri":"data:application/octet-stream;base64,",
		"byteLength":131376
	},
	{
		"uri":"data:application/octet-stream;base64,",
		"byteLength":262140
	},
	{
		"uri":"data:application/octet-stream;base64,",
		"byteLength":55488
	}]
}