{
	"asset":{
		"version":"2.0",
		"generator":"Sketchfab-15.30.0",
		"copyright":""
	},
	"scenes":[{
		"nodes":[0,
		1]
	}],
	"nodes":[{
		"scale":[1.0,
		1.0,
		1.0],
		"name":"Earth_Earth_0.1",
		"mesh":0,
		"translation":[0.0,
		-6.649476528167725,
		0.0],
		"rotation":[0.8144835233688355,
		-1.4346544443503358e-17,
		1.4346544443503358e-17,
		-0.580186665058136]
	},
	{
		"scale":[1.0,
		1.0,
		1.0],
		"name":"Earth_Earth_0",
		"mesh":1,
		"translation":[0.0,
		-6.649476528167725,
		0.0],
		"rotation":[0.8144835233688355,
		-1.4346544443503358e-17,
		1.4346544443503358e-17,
		-0.580186665058136]
	}],
	"meshes":[{
		"name":"Earth_Earth_0.1",
		"primitives":[{
			"attributes":{
				"POSITION":1,
				"NORMAL":2,
				"TEXCOORD_0":3
			},
			"indices":0
		}]
	},
	{
		"name":"Earth_Earth_0",
		"primitives":[{
			"attributes":{
				"POSITION":5,
				"NORMAL":6,
				"TEXCOORD_0":7
			},
			"indices":4
		}]
	}],
	"accessors":[{
		"bufferView":0,
		"type":"SCALAR",
		"componentType":5123,
		"min":[0],
		"count":36744,
		"byteOffset":0,
		"max":[36743]
	},
	{
		"bufferView":1,
		"type":"VEC3",
		"componentType":5126,
		"min":[-339.9877014160156,
		-339.9195251464844,
		-336.5187072753906],
		"count":36744,
		"byteOffset":0,
		"max":[309.1380310058594,
		339.4508972167969,
		339.91619873046877]
	},
	{
		"bufferView":1,
		"type":"VEC3",
		"componentType":5126,
		"min":[-0.9999638199806213,
		-0.9998571276664734,
		-0.9999792575836182],
		"count":36744,
		"byteOffset":12,
		"max":[0.9993505477905273,
		0.999980092048645,
		0.9998384714126587]
	},
	{
		"bufferView":1,
		"type":"VEC2",
		"componentType":5126,
		"min":[0.4788665771484375,
		0.032642364501953128],
		"count":36744,
		"byteOffset":24,
		"max":[0.9143524169921875,
		0.97393798828125]
	},
	{
		"bufferView":2,
		"type":"SCALAR",
		"componentType":5123,
		"min":[0],
		"count":9216,
		"byteOffset":0,
		"max":[9215]
	},
	{
		"bufferView":3,
		"type":"VEC3",
		"componentType":5126,
		"min":[-330.7568664550781,
		-330.7568664550781,
		-330.7568359375],
		"count":9216,
		"byteOffset":0,
		"max":[330.75689697265627,
		330.7568664550781,
		330.7568664550781]
	},
	{
		"bufferView":3,
		"type":"VEC3",
		"componentType":5126,
		"min":[-1.0,
		-1.0,
		-1.0],
		"count":9216,
		"byteOffset":12,
		"max":[1.0,
		1.0,
		1.0]
	},
	{
		"bufferView":3,
		"type":"VEC2",
		"componentType":5126,
		"min":[0.02278900146484375,
		0.017918109893798829],
		"count":9216,
		"byteOffset":24,
		"max":[0.5113372802734375,
		0.9874725341796875]
	}],
	"bufferViews":[{
		"buffer":0,
		"byteOffset":0,
		"byteLength":73488,
		"target":34963
	},
	{
		"buffer":0,
		"byteOffset":73488,
		"byteLength":1175808,
		"target":34962,
		"byteStride":32
	},
	{
		"buffer":1,
		"byteOffset":0,
		"byteLength":18432,
		"target":34963
	},
	{
		"buffer":1,
		"byteOffset":18432,
		"byteLength":294912,
		"target":34962,
		"byteStride":32
	}],
	"buffers":[{
		"uri":"data:application/octet-stream;base64,",
		"byteLength":1249296
	},
	{
		"uri":"data:application/octet-stream;base64,",
		"byteLength":313344
	}]
}